<?xml version="1.0" encoding="UTF-8"?>
<svg width="800px" height="800px" viewBox="0 0 24 24" version="1.1" xmlns="http://www.w3.org/2000/svg">
    <g stroke="none" stroke-width="1" fill="none" fill-rule="evenodd">
        <path d="M17.05,20.28c-.98.95-2.05.8-3.08.35-1.09-.46-2.09-.48-3.24,0-1.44.62-2.2.44-3.06-.35C2.79,15.25,3.51,7.59,9.05,7.31c1.33.07,2.25.74,3.03.78,1.18-.19,2.31-.89,3.57-.84,1.51.07,2.65.61,3.44,1.57-3.14,1.88-2.29,5.13.22,6.41-.65,1.29-1.52,2.58-2.26,4.06zM12.03,7.25c-.15-2.23,1.66-4.07,3.74-4.25.29,2.58-2.34,4.5-3.74,4.25z" fill="#000000" fill-rule="nonzero"/>
    </g>
</svg>