<?xml version="1.0" encoding="UTF-8"?>
<svg width="800px" height="800px" viewBox="0 0 24 24" version="1.1" xmlns="http://www.w3.org/2000/svg">
    <g stroke="none" stroke-width="1" fill="none" fill-rule="evenodd">
        <path d="M3.5,3.5 L20.5,3.5 C21.3284271,3.5 22,4.17157288 22,5 L22,19 C22,19.8284271 21.3284271,20.5 20.5,20.5 L3.5,20.5 C2.67157288,20.5 2,19.8284271 2,19 L2,5 C2,4.17157288 2.67157288,3.5 3.5,3.5 Z" fill="#000000" fill-rule="nonzero"/>
        <path d="M7,7 L17,7 L17,17 L7,17 L7,7 Z" fill="#FFFFFF" fill-rule="nonzero"/>
        <path d="M9,9 L15,9 L15,15 L9,15 L9,9 Z" fill="#000000" fill-rule="nonzero"/>
        <path d="M11,11 L13,11 L13,13 L11,13 L11,11 Z" fill="#FFFFFF" fill-rule="nonzero"/>
    </g>
</svg> 