<?xml version="1.0" encoding="UTF-8"?>
<svg width="800px" height="800px" viewBox="0 0 24 24" version="1.1" xmlns="http://www.w3.org/2000/svg">
    <g stroke="none" stroke-width="1" fill="none" fill-rule="evenodd">
        <path d="M12,2 C6.48,2 2,6.48 2,12 C2,17.52 6.48,22 12,22 C17.52,22 22,17.52 22,12 C22,6.48 17.52,2 12,2 Z" fill="#FF6700" fill-rule="nonzero"/>
        <path d="M12,4 C16.42,4 20,7.58 20,12 C20,16.42 16.42,20 12,20 C7.58,20 4,16.42 4,12 C4,7.58 7.58,4 12,4 Z" fill="#FFFFFF" fill-rule="nonzero"/>
        <path d="M12,6 C8.69,6 6,8.69 6,12 C6,15.31 8.69,18 12,18 C15.31,18 18,15.31 18,12 C18,8.69 15.31,6 12,6 Z" fill="#FF6700" fill-rule="nonzero"/>
        <path d="M9,9 L15,9 L15,15 L9,15 L9,9 Z" fill="#FFFFFF" fill-rule="nonzero"/>
        <path d="M10,10 L14,10 L14,14 L10,14 L10,10 Z" fill="#FF6700" fill-rule="nonzero"/>
        <path d="M11,11 L13,11 L13,13 L11,13 L11,11 Z" fill="#FFFFFF" fill-rule="nonzero"/>
    </g>
</svg>